HIERARCHY
ROOT Hips
{
	OFFSET 0.00000 0.00000 0.00000
	CHANNELS 6 Xposition Yposition Zposition Zrotation Yrotation Xrotation 
	JOINT LHipJoint
	{
		OFFSET 0 0 0
		CHANNELS 3 Zrotation Yrotation Xrotation
		JOINT LeftUpLeg
		{
			OFFSET 1.26600 -1.82114 0.91038
			CHANNELS 3 Zrotation Yrotation Xrotation
			JOINT LeftLeg
			{
				OFFSET 2.50076 -6.87080 0.00000
				CHANNELS 3 Zrotation Yrotation Xrotation
				JOINT LeftFoot
				{
					OFFSET 2.57364 -7.07102 0.00000
					CHANNELS 3 Zrotation Yrotation Xrotation
					JOINT LeftToeBase
					{
						OFFSET 0.13572 -0.37290 1.97004
						CHANNELS 3 Zrotation Yrotation Xrotation
						End Site
						{
							OFFSET 0.00000 -0.00000 1.01383
						}
					}
				}
			}
		}
	}
	JOINT RHipJoint
	{
		OFFSET 0 0 0
		CHANNELS 3 Zrotation Yrotation Xrotation
		JOINT RightUpLeg
		{
			OFFSET -1.20803 -1.82114 0.91038
			CHANNELS 3 Zrotation Yrotation Xrotation
			JOINT RightLeg
			{
				OFFSET -2.54916 -7.00377 0.00000
				CHANNELS 3 Zrotation Yrotation Xrotation
				JOINT RightFoot
				{
					OFFSET -2.56374 -7.04382 0.00000
					CHANNELS 3 Zrotation Yrotation Xrotation
					JOINT RightToeBase
					{
						OFFSET -0.23520 -0.64621 2.09921
						CHANNELS 3 Zrotation Yrotation Xrotation
						End Site
						{
							OFFSET -0.00000 -0.00000 1.10065
						}
					}
				}
			}
		}
	}
	JOINT LowerBack
	{
		OFFSET 0 0 0
		CHANNELS 3 Zrotation Yrotation Xrotation
		JOINT Spine
		{
			OFFSET 0.05492 2.10797 -0.12074
			CHANNELS 3 Zrotation Yrotation Xrotation
			JOINT Spine1
			{
				OFFSET 0.04577 2.11592 -0.04483
				CHANNELS 3 Zrotation Yrotation Xrotation
				JOINT Neck
				{
					OFFSET 0 0 0
					CHANNELS 3 Zrotation Yrotation Xrotation
					JOINT Neck1
					{
						OFFSET -0.10759 1.80167 0.15770
						CHANNELS 3 Zrotation Yrotation Xrotation
						JOINT Head
						{
							OFFSET 0.09237 1.77509 -0.40848
							CHANNELS 3 Zrotation Yrotation Xrotation
							End Site
							{
								OFFSET 0.03805 1.84093 -0.15754
							}
						}
					}
				}
				JOINT LeftShoulder
				{
					OFFSET 0 0 0
					CHANNELS 3 Zrotation Yrotation Xrotation
					JOINT LeftArm
					{
						OFFSET 3.42372 1.09575 -0.28209
						CHANNELS 3 Zrotation Yrotation Xrotation
						JOINT LeftForeArm
						{
							OFFSET 4.95681 -0.00000 0.00000
							CHANNELS 3 Zrotation Yrotation Xrotation
							JOINT LeftHand
							{
								OFFSET 3.40915 -0.00000 0.00000
								CHANNELS 3 Zrotation Yrotation Xrotation
								JOINT LeftFingerBase
								{
									OFFSET 0 0 0
									CHANNELS 3 Zrotation Yrotation Xrotation
									JOINT LeftHandIndex1
									{
										OFFSET 0.61640 -0.00000 0.00000
										CHANNELS 3 Zrotation Yrotation Xrotation
										End Site
										{
											OFFSET 0.49696 -0.00000 0.00000
										}
									}
								}
								JOINT LThumb
								{
									OFFSET 0 0 0
									CHANNELS 3 Zrotation Yrotation Xrotation
									End Site
									{
										OFFSET 0.50455 -0.00000 0.50455
									}
								}
							}
						}
					}
				}
				JOINT RightShoulder
				{
					OFFSET 0 0 0
					CHANNELS 3 Zrotation Yrotation Xrotation
					JOINT RightArm
					{
						OFFSET -3.24731 1.15872 -0.32221
						CHANNELS 3 Zrotation Yrotation Xrotation
						JOINT RightForeArm
						{
							OFFSET -5.35200 -0.00000 0.00000
							CHANNELS 3 Zrotation Yrotation Xrotation
							JOINT RightHand
							{
								OFFSET -3.43721 -0.00000 -0.00000
								CHANNELS 3 Zrotation Yrotation Xrotation
								JOINT RightFingerBase
								{
									OFFSET 0 0 0
									CHANNELS 3 Zrotation Yrotation Xrotation
									JOINT RightHandIndex1
									{
										OFFSET -0.72009 -0.00000 0.00000
										CHANNELS 3 Zrotation Yrotation Xrotation
										End Site
										{
											OFFSET -0.58056 -0.00000 0.00000
										}
									}
								}
								JOINT RThumb
								{
									OFFSET 0 0 0
									CHANNELS 3 Zrotation Yrotation Xrotation
									End Site
									{
										OFFSET -0.58942 -0.00000 0.58942
									}
								}
							}
						}
					}
				}
			}
		}
	}
}
MOTION
Frames: 15
Frame Time: .0083333
-0.5586 17.5647 11.4734 -539.7680 -49.8272 181.8030 0.0000 0.0000 0.0000 -19.4359 2.0308 -9.4571 2.1239 9.1196 26.1701 0.8904 -6.6563 -16.8376 0.2070 2.9296 8.0827 0.0000 0.0000 0.0000 23.1597 -15.1624 -32.0680 -5.5918 -14.0207 43.3205 -0.5713 -11.4813 -22.6884 -0.6397 -5.1170 14.2425 -3.0813 -0.3217 8.6253 2.0018 -0.8273 3.7207 3.8843 -0.5383 -0.9069 -12.0084 -3.1599 -9.4630 7.7487 -8.4966 38.4942 3.8485 -5.4045 16.1535 -0.0000 0.0000 0.0000 -88.1740 2.0352 20.4084 17.9808 -28.1326 -4.5402 -0.0000 0.0000 -5.9233 23.2814 21.5635 8.9865 -7.1250 0.0000 -0.0000 -5.6967 53.1693 -1.1477 -0.0000 0.0000 0.0000 85.0831 -3.2603 10.9520 -23.0866 34.1834 -7.1869 0.0000 -0.0000 -12.1812 -22.3635 12.0329 -4.9023 7.1250 -0.0000 -0.0000 3.3681 -17.0144 2.2391
-0.5783 17.5604 11.4275 -539.4470 -49.1979 181.7340 0.0000 0.0000 0.0000 -19.1723 1.9654 -9.5363 2.1758 9.2231 26.4958 0.9624 -6.0984 -17.5016 0.1556 2.5418 7.0055 0.0000 0.0000 0.0000 23.7975 -15.6034 -31.7114 -5.3467 -13.7639 42.2998 -0.7342 -10.5522 -23.2478 -0.7405 -5.4973 15.3325 -2.7114 -0.1982 8.3702 1.8988 -0.6230 3.6586 3.5456 -0.4287 -0.8554 -11.8940 -3.1955 -9.3217 7.9511 -8.6671 38.3478 3.8877 -5.4377 16.0727 0.0000 -0.0000 0.0000 -87.8599 2.1985 20.0097 17.7429 -27.8266 -4.4285 -0.0000 0.0000 -4.5841 21.9319 20.8724 8.1638 -7.1250 0.0000 -0.0000 -6.8437 52.1981 -1.2174 0.0000 -0.0000 0.0000 85.4793 -3.5015 10.4920 -22.7198 33.7810 -6.9819 0.0000 -0.0000 -12.5961 -22.0537 12.0005 -4.8148 7.1250 -0.0000 -0.0000 3.5827 -17.0784 2.3772
-0.6004 17.5551 11.3835 -538.8920 -48.5636 181.4820 0.0000 0.0000 0.0000 -18.7412 2.0731 -9.6029 2.2115 9.2933 26.7172 1.0171 -5.6385 -18.0122 0.1328 2.3488 6.4707 0.0000 0.0000 0.0000 24.6045 -16.1560 -31.4052 -5.1379 -13.5374 41.4150 -0.8655 -9.7701 -23.6838 -0.7803 -5.6396 15.7421 -2.1992 -0.0742 8.1140 1.8660 -0.4126 3.6345 3.2003 -0.3182 -0.7613 -11.7159 -3.2912 -9.1931 8.1026 -8.9182 38.1714 3.8777 -5.4986 15.9860 0.0000 -0.0000 0.0000 -87.7641 2.3952 20.3964 17.8340 -27.9441 -4.4712 -0.0000 0.0000 -5.5382 22.8721 21.3953 8.7485 -7.1250 0.0000 -0.0000 -6.0605 52.9161 -1.1839 0.0000 -0.0000 0.0000 85.8358 -3.6413 10.0407 -22.2101 33.2136 -6.7005 0.0000 -0.0000 -12.8548 -21.5936 12.0962 -4.7413 7.1250 -0.0000 -0.0000 3.9068 -17.0196 2.5983
-0.6193 17.5378 11.3453 -538.2480 -47.8095 181.1750 0.0000 0.0000 0.0000 -18.2391 2.2201 -9.6121 2.2209 9.3118 26.7755 1.0646 -5.3204 -18.4541 0.1584 2.5640 7.0671 0.0000 0.0000 0.0000 25.5045 -16.5898 -31.0940 -4.9525 -13.3301 40.6171 -0.9360 -9.3770 -23.9459 -0.7091 -5.3817 15.0005 -1.7574 -0.0916 7.9521 1.9589 -0.4037 3.6457 3.0444 -0.3129 -0.6640 -11.6863 -3.3556 -9.4510 8.0278 -8.9720 38.1858 3.8230 -5.5192 16.0585 -0.0000 -0.0000 0.0000 -87.9714 2.3983 19.5201 17.6745 -27.7384 -4.3967 -0.0000 0.0000 -4.4622 22.7243 21.5797 8.7568 -7.1250 0.0000 -0.0000 -6.2707 53.0819 -1.2506 -0.0000 -0.0000 0.0000 85.8400 -3.5181 10.3286 -21.4577 32.3588 -6.2931 0.0000 -0.0000 -12.4047 -21.4240 12.1968 -4.7389 7.1250 -0.0000 -0.0000 4.0285 -16.9283 2.6877
-0.6342 17.5340 11.3110 -538.4950 -46.9016 181.7060 0.0000 0.0000 0.0000 -18.4302 2.2624 -9.7754 2.2224 9.3148 26.7852 1.1111 -4.8636 -18.8991 0.1711 2.6648 7.3470 0.0000 0.0000 0.0000 25.6021 -16.3466 -30.8402 -4.7833 -13.1355 39.8779 -0.9831 -9.0262 -24.0523 -0.6153 -5.0202 13.9662 -2.0097 -0.0811 7.7255 1.9605 -0.3966 3.5560 3.1861 -0.3080 -0.6298 -11.7816 -3.3433 -9.8223 7.8556 -8.8523 38.3493 3.7779 -5.5016 16.2125 -0.0000 0.0000 0.0000 -88.2391 2.4069 18.7636 17.4754 -27.4802 -4.3044 -0.0000 0.0000 -3.8678 22.9437 21.7832 8.9276 -7.1250 0.0000 -0.0000 -6.1132 53.3361 -1.2571 -0.0000 0.0000 0.0000 85.6315 -3.3749 10.7972 -20.7056 31.4831 -5.8954 0.0000 -0.0000 -11.8329 -21.6423 11.8706 -4.6661 7.1250 -0.0000 -0.0000 3.8647 -17.2553 2.5502
-0.6480 17.5448 11.2817 -538.9380 -45.9554 182.4000 0.0000 0.0000 0.0000 -18.8291 2.2054 -9.9372 2.2209 9.3117 26.7753 1.1458 -4.1239 -19.2831 0.1320 2.3422 6.4524 0.0000 0.0000 0.0000 25.3128 -15.6119 -30.5363 -4.6298 -12.9544 39.1980 -1.0452 -8.4464 -24.1090 -0.6325 -5.0885 14.1611 -2.3044 0.0730 7.5271 1.8642 -0.1960 3.3997 3.2359 -0.2011 -0.6946 -11.6941 -3.3558 -9.8784 7.7325 -8.8698 38.4009 3.7019 -5.5169 16.2425 0.0000 -0.0000 0.0000 -88.3626 2.4954 18.7758 17.4360 -27.4289 -4.2862 -0.0000 0.0000 -4.7607 22.8445 21.5042 8.7786 -7.1250 0.0000 -0.0000 -6.1237 53.0252 -1.2127 0.0000 -0.0000 0.0000 85.5910 -3.3256 10.5169 -20.0207 30.6673 -5.5419 0.0000 -0.0000 -11.4619 -21.7833 11.9605 -4.7344 7.1250 -0.0000 -0.0000 3.7696 -17.1465 2.4962
-0.6607 17.5465 11.2472 -538.6620 -45.0822 182.3460 0.0000 0.0000 0.0000 -18.6671 2.0766 -9.7593 2.2123 9.2950 26.7224 1.1834 -3.1542 -19.7586 0.0974 2.0124 5.5399 0.0000 0.0000 0.0000 25.4547 -14.7808 -29.9174 -4.4987 -12.7960 38.6095 -1.1089 -7.7871 -24.1381 -0.8572 -5.9044 16.5073 -2.0794 0.1555 7.4984 1.8931 -0.0686 3.3418 3.1285 -0.1335 -0.7484 -11.6711 -3.3185 -9.7873 7.7006 -8.8061 38.2797 3.6931 -5.4930 16.1423 0.0000 -0.0000 0.0000 -88.5337 2.5461 18.5401 17.4270 -27.4173 -4.2821 -0.0000 0.0000 -5.5311 22.8163 21.5056 8.7673 -7.1250 0.0000 -0.0000 -6.1529 53.0213 -1.2179 0.0000 -0.0000 0.0000 85.5650 -3.2775 10.2240 -19.3414 29.8407 -5.1997 0.0000 -0.0000 -10.7757 -21.7631 12.8207 -5.0625 7.1250 -0.0000 -0.0000 3.8177 -16.2314 2.6043
-0.6712 17.5404 11.2033 -538.4180 -44.3279 182.2060 0.0000 0.0000 0.0000 -18.4820 1.8130 -9.3971 2.2103 9.2910 26.7100 1.2332 -2.1651 -20.3892 0.0804 1.8293 5.0342 0.0000 0.0000 0.0000 25.6565 -14.2406 -29.2861 -4.4002 -12.6747 38.1627 -1.1472 -7.1663 -24.0088 -1.1047 -6.6783 18.7657 -1.9934 0.1261 7.5029 1.9765 -0.1053 3.3585 3.1693 -0.1539 -0.7311 -11.7488 -3.2439 -9.8440 7.6240 -8.6300 38.2250 3.7001 -5.4401 16.1005 -0.0000 0.0000 0.0000 -88.8227 2.4896 17.5435 17.1895 -27.1070 -4.1733 -0.0000 0.0000 -4.8703 23.3745 21.8592 9.1418 -7.1250 0.0000 -0.0000 -5.6962 53.4977 -1.1934 -0.0000 0.0000 0.0000 85.4621 -3.2254 10.3423 -18.7031 29.0480 -4.8858 0.0000 -0.0000 -10.1463 -21.5794 13.1264 -5.1326 7.1250 -0.0000 -0.0000 3.9574 -15.9245 2.7263
-0.6818 17.5387 11.1622 -537.9620 -43.6237 182.0560 0.0000 0.0000 0.0000 -18.1078 1.5959 -9.2609 2.2210 9.3121 26.7765 1.2656 -1.3744 -20.8628 0.0602 1.5829 4.3542 0.0000 0.0000 0.0000 26.1172 -13.8461 -28.9538 -4.3370 -12.5958 37.8737 -1.1656 -6.6911 -23.8343 -1.1475 -6.8020 19.1300 -1.6664 0.1395 7.4118 2.0315 -0.0629 3.3115 3.0377 -0.1294 -0.7329 -11.7279 -3.2473 -9.8525 7.6798 -8.6718 38.1658 3.7108 -5.4511 16.0795 0.0000 0.0000 0.0000 -88.9357 2.4640 16.7886 16.9325 -26.7687 -4.0569 -0.0000 0.0000 -4.4330 23.9594 22.1417 9.5080 -7.1250 0.0000 -0.0000 -5.1843 53.9079 -1.1376 0.0000 0.0000 0.0000 85.5814 -3.2397 10.1672 -18.1410 28.3374 -4.6160 0.0000 -0.0000 -9.9755 -21.3820 12.9442 -5.0123 7.1250 -0.0000 -0.0000 4.0861 -16.1378 2.7965
-0.6952 17.5394 11.1285 -537.4710 -42.8280 181.9240 0.0000 0.0000 0.0000 -17.7242 1.5523 -9.2700 2.2397 9.3485 26.8917 1.2735 -0.7479 -21.1085 0.0566 1.5352 4.2227 0.0000 0.0000 0.0000 26.5916 -13.4227 -28.7925 -4.3072 -12.5583 37.7369 -1.1365 -6.4912 -23.4627 -1.0449 -6.5006 18.2441 -1.1531 0.2512 7.3988 2.0155 0.1252 3.1969 2.7164 -0.0267 -0.8556 -11.6436 -3.2661 -9.6898 7.8728 -8.8261 38.0363 3.7537 -5.4884 16.0013 0.0000 -0.0000 0.0000 -88.9275 2.5173 16.5622 16.7636 -26.5451 -3.9811 -0.0000 0.0000 -4.5619 24.2556 22.6122 9.8287 -7.1250 0.0000 -0.0000 -5.0298 54.4626 -1.1717 0.0000 -0.0000 0.0000 85.7860 -3.3035 9.6664 -17.6061 27.6499 -4.3649 0.0000 -0.0000 -9.7995 -21.1630 12.8178 -4.9088 7.1250 -0.0000 -0.0000 4.2325 -16.2934 2.8830
-0.7085 17.5458 11.0943 -537.4780 -41.8782 182.0330 0.0000 0.0000 0.0000 -17.7656 1.4954 -9.1541 2.2654 9.3984 27.0495 1.2838 0.0126 -21.4386 0.0506 1.4511 3.9910 0.0000 0.0000 0.0000 26.6132 -13.0033 -28.6023 -4.2917 -12.5388 37.6657 -1.0872 -6.3580 -22.9615 -0.9299 -6.1428 17.1994 -1.0487 0.4069 7.4507 1.9190 0.3394 3.1706 2.5404 0.0830 -0.9224 -11.3961 -3.2827 -9.6113 7.7495 -8.8522 37.8856 3.6481 -5.4764 15.8843 -0.0000 0.0000 0.0000 -88.9984 2.3496 15.8848 16.4233 -26.0913 -3.8303 -0.0000 0.0000 -3.5901 23.4992 22.5893 9.4817 -7.1250 0.0000 -0.0000 -5.8103 54.2885 -1.3297 -0.0000 0.0000 0.0000 85.9146 -3.1662 9.1358 -17.0016 26.8599 -4.0881 0.0000 -0.0000 -9.2908 -21.0625 13.2223 -5.0341 7.1250 -0.0000 -0.0000 4.3174 -15.8744 2.9804
-0.7178 17.5541 11.0580 -537.4020 -40.8072 182.0410 0.0000 0.0000 0.0000 -17.7279 1.5658 -9.0470 2.2921 9.4498 27.2127 1.2950 0.9912 -21.8882 0.0232 0.9839 2.7045 0.0000 0.0000 0.0000 26.6949 -12.4539 -28.2803 -4.2716 -12.5133 37.5730 -1.0866 -5.9954 -22.7172 -0.9494 -6.2051 17.3807 -0.9595 0.5441 7.4481 1.8755 0.5188 3.2753 2.4307 0.1686 -0.8212 -11.2998 -3.2893 -9.8206 7.6847 -8.7910 37.7646 3.6065 -5.4283 15.8538 0.0000 -0.0000 0.0000 -89.1247 1.9910 14.9599 16.0551 -25.5952 -3.6697 -0.0000 0.0000 -2.7635 22.7177 22.0761 8.9423 -7.1250 0.0000 -0.0000 -6.4426 53.5998 -1.3668 0.0000 -0.0000 0.0000 86.0366 -2.8384 8.6152 -16.4320 26.1029 -3.8341 0.0000 -0.0000 -8.6031 -20.8377 13.6297 -5.1252 7.1250 -0.0000 -0.0000 4.4882 -15.4657 3.1386
-0.7254 17.5511 11.0221 -537.0310 -39.7640 181.7520 0.0000 0.0000 0.0000 -17.4150 1.7155 -8.8415 2.3185 9.5002 27.3729 1.3403 1.6297 -22.5176 0.0345 1.1988 3.2960 0.0000 0.0000 0.0000 27.0043 -11.9556 -27.7816 -4.2433 -12.4773 37.4422 -1.1236 -5.3601 -22.6299 -1.1206 -6.7244 18.9014 -0.6866 0.6023 7.7210 1.9554 0.6054 3.3114 2.3514 0.2096 -0.9372 -11.5082 -3.2027 -10.0736 7.8973 -8.6534 37.7503 3.7553 -5.3695 15.9128 0.0000 -0.0000 0.0000 -89.3176 2.0854 15.0262 16.0627 -25.6056 -3.6730 -0.0000 0.0000 -4.1587 23.4560 22.1557 9.2932 -7.1250 0.0000 -0.0000 -5.7094 53.8249 -1.2419 0.0000 -0.0000 0.0000 85.9317 -2.6831 8.4365 -15.9643 25.4722 -3.6306 0.0000 -0.0000 -8.3200 -20.3583 12.8904 -4.7322 7.1250 -0.0000 -0.0000 4.7914 -16.2934 3.2663
-0.7362 17.5440 10.9847 -536.6120 -38.9250 181.3450 0.0000 0.0000 0.0000 -17.0541 1.6778 -8.4222 2.3481 9.5564 27.5519 1.4135 1.9484 -23.2397 0.0889 1.9228 5.2922 0.0000 0.0000 0.0000 27.3441 -11.7144 -27.2541 -4.2126 -12.4381 37.2998 -1.1473 -4.8340 -22.5145 -1.2232 -7.0147 19.7590 -0.3840 0.6116 8.0695 2.0775 0.6351 3.2786 2.3031 0.2239 -1.1628 -11.5771 -3.1187 -9.9211 7.9389 -8.5484 37.6355 3.8027 -5.3404 15.8063 0.0000 0.0000 0.0000 -89.4987 2.5905 15.9651 16.3295 -25.9653 -3.7891 -0.0000 0.0000 -6.5348 24.4628 22.2065 9.7562 -7.1250 0.0000 -0.0000 -4.6822 54.0747 -1.0461 0.0000 0.0000 0.0000 85.7427 -2.7185 8.2582 -15.5228 24.8694 -3.4428 0.0000 -0.0000 -8.0688 -20.0462 12.1364 -4.3867 7.1250 -0.0000 -0.0000 4.9858 -17.1166 3.3102
-0.7493 17.5425 10.9426 -536.3700 -38.2181 181.1970 0.0000 0.0000 0.0000 -16.8400 1.7662 -8.2229 2.3750 9.6070 27.7131 1.4251 2.4456 -23.5492 0.0891 1.9256 5.3002 0.0000 0.0000 0.0000 27.6001 -11.4365 -26.8969 -4.1903 -12.4094 37.1962 -1.1555 -4.5931 -22.4437 -1.1978 -6.9443 19.5506 -0.2584 0.6370 7.9448 2.1957 0.6676 3.3790 2.3526 0.2344 -0.9915 -11.5923 -3.1105 -9.8614 7.9045 -8.5023 37.4767 3.7953 -5.3241 15.7024 -0.0000 0.0000 0.0000 -89.6910 2.7891 16.6088 16.4490 -26.1257 -3.8416 -0.0000 0.0000 -7.9242 25.2008 21.9389 9.9717 -7.1250 0.0000 -0.0000 -3.8312 53.9358 -0.8425 -0.0000 0.0000 0.0000 85.6017 -2.6171 7.8281 -15.1604 24.3691 -3.2919 0.0000 -0.0000 -7.4039 -19.1963 11.5508 -3.9879 7.1250 -0.0000 -0.0000 5.5667 -17.8034 3.6153
